<svg width="15" height="15" viewBox="0 0 15 15" fill="none" xmlns="http://www.w3.org/2000/svg">
<path fill-rule="evenodd" clip-rule="evenodd" d="M0.25 1.875C0.25 1.32272 0.697715 0.875 1.25 0.875H5C5.92826 0.875 6.8185 1.24375 7.47487 1.90013C8.13125 2.5565 8.5 3.44674 8.5 4.375V13.125C8.5 13.6773 8.05228 14.125 7.5 14.125C6.94772 14.125 6.5 13.6773 6.5 13.125C6.5 12.8929 6.40781 12.6704 6.24372 12.5063C6.07962 12.3422 5.85706 12.25 5.625 12.25H1.25C0.697715 12.25 0.25 11.8023 0.25 11.25V1.875ZM6.5 10.3864V4.375C6.5 3.97717 6.34196 3.59564 6.06066 3.31434C5.77936 3.03304 5.39782 2.875 5 2.875H2.25V10.25H5.625C5.92475 10.25 6.21968 10.2968 6.5 10.3864Z" fill="#4C4C4C"/>
<path fill-rule="evenodd" clip-rule="evenodd" d="M7.52513 1.90013C8.1815 1.24375 9.07174 0.875 10 0.875H13.75C14.3023 0.875 14.75 1.32272 14.75 1.875V11.25C14.75 11.8023 14.3023 12.25 13.75 12.25H9.375C9.14294 12.25 8.92038 12.3422 8.75628 12.5063C8.59219 12.6704 8.5 12.8929 8.5 13.125C8.5 13.6773 8.05228 14.125 7.5 14.125C6.94772 14.125 6.5 13.6773 6.5 13.125V4.375C6.5 3.44674 6.86875 2.5565 7.52513 1.90013ZM8.5 10.3864C8.78032 10.2968 9.07525 10.25 9.375 10.25H12.75V2.875H10C9.60217 2.875 9.22064 3.03304 8.93934 3.31434C8.65804 3.59564 8.5 3.97717 8.5 4.375V10.3864Z" fill="#4C4C4C"/>
</svg>
