<svg width="15" height="15" viewBox="0 0 15 15" fill="none" xmlns="http://www.w3.org/2000/svg">
<path fill-rule="evenodd" clip-rule="evenodd" d="M1.875 8.375C2.42728 8.375 2.875 8.82272 2.875 9.375V11.875C2.875 11.9413 2.90134 12.0049 2.94822 12.0518C2.99511 12.0987 3.0587 12.125 3.125 12.125H11.875C11.9413 12.125 12.0049 12.0987 12.0518 12.0518C12.0987 12.0049 12.125 11.9413 12.125 11.875V9.375C12.125 8.82272 12.5727 8.375 13.125 8.375C13.6773 8.375 14.125 8.82272 14.125 9.375V11.875C14.125 12.4717 13.8879 13.044 13.466 13.466C13.044 13.8879 12.4717 14.125 11.875 14.125H3.125C2.52826 14.125 1.95597 13.8879 1.53401 13.466C1.11205 13.044 0.875 12.4717 0.875 11.875V9.375C0.875 8.82272 1.32272 8.375 1.875 8.375Z" fill="#4C4C4C"/>
<path fill-rule="evenodd" clip-rule="evenodd" d="M3.66789 5.54289C4.05842 5.15237 4.69158 5.15237 5.08211 5.54289L7.5 7.96079L9.91789 5.54289C10.3084 5.15237 10.9416 5.15237 11.3321 5.54289C11.7226 5.93342 11.7226 6.56658 11.3321 6.95711L8.20711 10.0821C7.81658 10.4726 7.18342 10.4726 6.79289 10.0821L3.66789 6.95711C3.27737 6.56658 3.27737 5.93342 3.66789 5.54289Z" fill="#4C4C4C"/>
<path fill-rule="evenodd" clip-rule="evenodd" d="M7.5 0.875C8.05228 0.875 8.5 1.32272 8.5 1.875V9.375C8.5 9.92729 8.05228 10.375 7.5 10.375C6.94772 10.375 6.5 9.92729 6.5 9.375V1.875C6.5 1.32272 6.94772 0.875 7.5 0.875Z" fill="#4C4C4C"/>
</svg>
