<svg width="15" height="15" viewBox="0 0 15 15" fill="none" xmlns="http://www.w3.org/2000/svg">
<path fill-rule="evenodd" clip-rule="evenodd" d="M4.6875 2.25C4.53832 2.25 4.39524 2.30926 4.28975 2.41475C4.18426 2.52024 4.125 2.66332 4.125 2.8125C4.125 2.96168 4.18426 3.10476 4.28975 3.21025C4.39524 3.31574 4.53832 3.375 4.6875 3.375H6.08099C6.06697 3.34811 6.05259 3.32123 6.03785 3.29442C5.66669 2.61959 5.22515 2.25 4.6875 2.25ZM8.91902 3.375H10.3125C10.4617 3.375 10.6048 3.31574 10.7103 3.21025C10.8157 3.10476 10.875 2.96168 10.875 2.8125C10.875 2.66332 10.8157 2.52024 10.7103 2.41475C10.6048 2.30926 10.4617 2.25 10.3125 2.25C9.77486 2.25 9.33332 2.61959 8.96216 3.29442C8.94742 3.32123 8.93304 3.34811 8.91902 3.375ZM12.8125 3.375C12.8537 3.19181 12.875 3.00325 12.875 2.8125C12.875 2.13288 12.605 1.4811 12.1245 1.00054C11.6439 0.519977 10.9921 0.25 10.3125 0.25C8.94225 0.25 8.04459 1.07285 7.5 1.86029C6.95542 1.07285 6.05776 0.25 4.6875 0.25C4.00788 0.25 3.3561 0.519977 2.87554 1.00054C2.39498 1.4811 2.125 2.13288 2.125 2.8125C2.125 3.00325 2.14627 3.19181 2.18749 3.375H1.25C0.697715 3.375 0.25 3.82272 0.25 4.375V7.5C0.25 8.05228 0.697715 8.5 1.25 8.5H1.5V13.75C1.5 14.3023 1.94772 14.75 2.5 14.75H7.5H12.5C13.0523 14.75 13.5 14.3023 13.5 13.75V8.5H13.75C14.3023 8.5 14.75 8.05228 14.75 7.5V4.375C14.75 3.82272 14.3023 3.375 13.75 3.375H12.8125ZM10.3125 5.375H8.5V6.5H12.5H12.75V5.375H10.3125ZM6.5 5.375H4.6875H2.25V6.5H2.5H6.5V5.375ZM11.5 12.75H8.5V8.5H11.5V12.75ZM6.5 12.75V8.5H3.5V12.75H6.5Z" fill="#4C4C4C"/>
</svg>
