<svg width="15" height="11" viewBox="0 0 15 11" fill="none" xmlns="http://www.w3.org/2000/svg">
<path fill-rule="evenodd" clip-rule="evenodd" d="M4 1.75C4 1.19772 4.44772 0.75 5 0.75H13.125C13.6773 0.75 14.125 1.19772 14.125 1.75C14.125 2.30228 13.6773 2.75 13.125 2.75H5C4.44772 2.75 4 2.30228 4 1.75Z" fill="#4C4C4C"/>
<path fill-rule="evenodd" clip-rule="evenodd" d="M4 5.5C4 4.94772 4.44772 4.5 5 4.5H13.125C13.6773 4.5 14.125 4.94772 14.125 5.5C14.125 6.05228 13.6773 6.5 13.125 6.5H5C4.44772 6.5 4 6.05228 4 5.5Z" fill="#4C4C4C"/>
<path fill-rule="evenodd" clip-rule="evenodd" d="M4 9.25C4 8.69772 4.44772 8.25 5 8.25H13.125C13.6773 8.25 14.125 8.69772 14.125 9.25C14.125 9.80228 13.6773 10.25 13.125 10.25H5C4.44772 10.25 4 9.80228 4 9.25Z" fill="#4C4C4C"/>
<path fill-rule="evenodd" clip-rule="evenodd" d="M0.875 1.75C0.875 1.19772 1.32272 0.75 1.875 0.75H1.88167C2.43395 0.75 2.88167 1.19772 2.88167 1.75C2.88167 2.30228 2.43395 2.75 1.88167 2.75H1.875C1.32272 2.75 0.875 2.30228 0.875 1.75Z" fill="#4C4C4C"/>
<path fill-rule="evenodd" clip-rule="evenodd" d="M0.875 5.5C0.875 4.94772 1.32272 4.5 1.875 4.5H1.88167C2.43395 4.5 2.88167 4.94772 2.88167 5.5C2.88167 6.05228 2.43395 6.5 1.88167 6.5H1.875C1.32272 6.5 0.875 6.05228 0.875 5.5Z" fill="#4C4C4C"/>
<path fill-rule="evenodd" clip-rule="evenodd" d="M0.875 9.25C0.875 8.69772 1.32272 8.25 1.875 8.25H1.88167C2.43395 8.25 2.88167 8.69772 2.88167 9.25C2.88167 9.80228 2.43395 10.25 1.88167 10.25H1.875C1.32272 10.25 0.875 9.80228 0.875 9.25Z" fill="#4C4C4C"/>
</svg>
