<svg width="10" height="10" viewBox="0 0 10 10" fill="none" xmlns="http://www.w3.org/2000/svg">
<path d="M0 1C0 0.447715 0.223858 0 0.5 0H9.5C9.77614 0 10 0.447715 10 1C10 1.55228 9.77614 2 9.5 2H0.5C0.223858 2 0 1.55228 0 1Z" fill="#4C4C4C"/>
<path d="M0 9C0 8.44772 0.223858 8 0.5 8H9.5C9.77614 8 10 8.44772 10 9V9C10 9.55228 9.77614 10 9.5 10H0.5C0.223858 10 0 9.55228 0 9V9Z" fill="#4C4C4C"/>
<path d="M0 5C0 4.44772 0.223858 4 0.5 4H9.5C9.77614 4 10 4.44772 10 5V5C10 5.55228 9.77614 6 9.5 6H0.5C0.223858 6 0 5.55228 0 5V5Z" fill="#4C4C4C"/>
</svg>
