<svg width="10" height="7" viewBox="0 0 10 7" fill="none" xmlns="http://www.w3.org/2000/svg">
<path d="M0 0.5C0 0.223858 0.223858 0 0.5 0H9.5C9.77614 0 10 0.223858 10 0.5V0.5C10 0.776142 9.77614 1 9.5 1H0.5C0.223858 1 0 0.776142 0 0.5V0.5Z" fill="#4C4C4C"/>
<path d="M0 6.5C0 6.22386 0.223858 6 0.5 6H9.5C9.77614 6 10 6.22386 10 6.5V6.5C10 6.77614 9.77614 7 9.5 7H0.5C0.223858 7 0 6.77614 0 6.5V6.5Z" fill="#4C4C4C"/>
<path d="M0 4.5C0 4.22386 0.223858 4 0.5 4H9.5C9.77614 4 10 4.22386 10 4.5V4.5C10 4.77614 9.77614 5 9.5 5H0.5C0.223858 5 0 4.77614 0 4.5V4.5Z" fill="#4C4C4C"/>
<path d="M0 2.5C0 2.22386 0.223858 2 0.5 2H9.5C9.77614 2 10 2.22386 10 2.5V2.5C10 2.77614 9.77614 3 9.5 3H0.5C0.223858 3 0 2.77614 0 2.5V2.5Z" fill="#4C4C4C"/>
</svg>
