<svg width="15" height="15" viewBox="0 0 15 15" fill="none" xmlns="http://www.w3.org/2000/svg">
<path fill-rule="evenodd" clip-rule="evenodd" d="M0.25 1.25C0.25 0.697715 0.697715 0.25 1.25 0.25H7.5C7.76522 0.25 8.01957 0.355357 8.20711 0.542893L13.578 5.91375C13.997 6.33532 14.2322 6.90558 14.2322 7.5C14.2322 8.09442 13.997 8.66468 13.578 9.08625L12.8687 8.38125L13.5759 9.08836L9.095 13.5692C9.09487 13.5693 9.09513 13.5691 9.095 13.5692C8.88612 13.7782 8.63772 13.9444 8.36474 14.0576C8.09159 14.1708 7.79881 14.2291 7.50313 14.2291C7.20744 14.2291 6.91466 14.1708 6.64151 14.0576C6.36871 13.9445 6.12084 13.7788 5.91205 13.57C5.91178 13.5697 5.91152 13.5695 5.91125 13.5692L0.543305 8.20752C0.355517 8.01995 0.25 7.76542 0.25 7.5V1.25ZM12.1602 7.67557C12.1604 7.67534 12.16 7.67579 12.1602 7.67557C12.2064 7.62879 12.2322 7.56573 12.2322 7.5C12.2322 7.43427 12.2064 7.37121 12.1602 7.32443C12.16 7.32421 12.1604 7.32466 12.1602 7.32443L7.08579 2.25H2.25V7.08544L7.32625 12.1558C7.34947 12.179 7.37704 12.1975 7.40739 12.2101C7.43774 12.2226 7.47027 12.2291 7.50313 12.2291C7.53598 12.2291 7.56851 12.2226 7.59886 12.2101C7.62921 12.1975 7.65678 12.179 7.68 12.1558L12.1602 7.67557Z" fill="#4C4C4C"/>
<path fill-rule="evenodd" clip-rule="evenodd" d="M3.375 4.375C3.375 3.82272 3.82272 3.375 4.375 3.375H4.38167C4.93395 3.375 5.38167 3.82272 5.38167 4.375C5.38167 4.92728 4.93395 5.375 4.38167 5.375H4.375C3.82272 5.375 3.375 4.92728 3.375 4.375Z" fill="#4C4C4C"/>
</svg>
